<svg viewBox="0 0 271 43" xmlns="http://www.w3.org/2000/svg" data-logo="logo">
        <g transform="translate(0, 1) rotate(0)" id="logogram"><path fill="white" d="M37.7824 2.31575C38.7075 1.35327 39.964 0.812561 41.2724 0.812561C47.159 0.812561 52.7065 0.812564 58.1696 0.812576C69.1575 0.812599 74.6597 14.6328 66.8901 22.7155L49.9661 40.3216C49.1892 41.1299 47.8607 40.5574 47.8607 39.4143V23.9075L49.8165 21.8728C51.3704 20.2563 50.2699 17.4922 48.0723 17.4922H23.1939L37.7824 2.31575Z"></path><path fill="white" d="M33.2722 39.0841C32.347 40.0466 31.0905 40.5873 29.7821 40.5873C23.8955 40.5873 18.348 40.5873 12.8849 40.5873C1.89705 40.5872 -3.60514 26.7671 4.16443 18.6843L21.0884 1.07826C21.8654 0.269982 23.1938 0.842438 23.1938 1.98551L23.1939 17.4922L21.238 19.527C19.6841 21.1436 20.7846 23.9076 22.9822 23.9076L47.8607 23.9075L33.2722 39.0841Z"></path></g>
        <g transform="translate(77, 8.5)" id="logotype"><path d="M19.27 26.32L19.27 26.32Q16.54 26.32 14.33 25.44Q12.13 24.57 10.53 22.90Q8.94 21.24 8.08 18.88Q7.22 16.52 7.22 13.57L7.22 13.57Q7.22 10.39 8.17 7.90Q9.12 5.42 10.85 3.69Q12.58 1.95 14.98 1.06Q17.38 0.17 20.35 0.17L20.35 0.17Q23.68 0.17 26.27 1.24Q28.86 2.30 30.48 4.25Q32.11 6.19 32.46 8.92L32.46 8.92L26.93 8.92Q26.55 7.69 25.64 6.77Q24.73 5.84 23.38 5.33Q22.03 4.82 20.32 4.82L20.32 4.82Q17.87 4.82 16.20 5.89Q14.54 6.96 13.68 8.88Q12.83 10.81 12.83 13.40L12.83 13.40Q12.83 15.43 13.35 17.00Q13.88 18.58 14.84 19.65Q15.80 20.71 17.15 21.27Q18.50 21.84 20.18 21.84L20.18 21.84Q22.21 21.84 23.73 21.12Q25.25 20.40 26.11 19.11Q26.97 17.81 26.97 16.06L26.97 16.06L26.97 14.97L28.09 15.99L19.72 15.99L19.72 12.03L32.78 12.03L32.78 26L28.44 26L28.16 21.98L27.95 21.98Q27.35 23.27 26.06 24.25Q24.76 25.23 23.01 25.77Q21.26 26.32 19.27 26.32ZM42.05 26.32L42.05 26.32Q40.34 26.32 38.94 25.67Q37.54 25.02 36.52 23.78Q35.51 22.54 34.96 20.71Q34.42 18.89 34.42 16.62L34.42 16.62Q34.42 13.54 35.38 11.35Q36.35 9.16 38.06 8.03Q39.78 6.89 42.05 6.89L42.05 6.89Q43.49 6.89 44.64 7.33Q45.80 7.76 46.64 8.55Q47.48 9.34 47.86 10.39L47.86 10.39L48.14 10.39L48.35 7.24L53.22 7.24L53.22 26L48.35 26L48.14 22.81L47.86 22.81Q47.30 24.39 45.74 25.35Q44.19 26.32 42.05 26.32ZM43.91 22.15L43.91 22.15Q45.31 22.15 46.23 21.55Q47.16 20.96 47.62 19.91Q48.07 18.86 48.07 17.53L48.07 17.53L48.07 15.67Q48.07 14.31 47.60 13.28Q47.13 12.24 46.20 11.65Q45.27 11.05 44.05 11.05L44.05 11.05Q42.58 11.05 41.61 11.72Q40.65 12.38 40.16 13.63Q39.67 14.87 39.67 16.62L39.67 16.62Q39.67 18.30 40.13 19.56Q40.58 20.82 41.53 21.48Q42.47 22.15 43.91 22.15ZM61.37 26L56.23 26L56.23 7.24L61.20 7.24L61.37 10.63L61.58 10.63Q62.32 8.74 63.87 7.82Q65.43 6.89 67.32 6.89L67.32 6.89Q69.28 6.89 70.91 7.83Q72.53 8.78 73.27 11.09L73.27 11.09L73.55 11.09Q74.25 8.99 75.93 7.94Q77.61 6.89 79.75 6.89L79.75 6.89Q81.56 6.89 83.02 7.66Q84.47 8.43 85.31 10.13Q86.15 11.82 86.15 14.66L86.15 14.66L86.15 26L81.01 26L81.01 15.78Q81.01 14.20 80.67 13.15Q80.34 12.10 79.59 11.60Q78.84 11.09 77.68 11.09L77.68 11.09Q76.42 11.09 75.55 11.72Q74.67 12.35 74.22 13.36Q73.76 14.38 73.76 15.57L73.76 15.57L73.76 26L68.62 26L68.62 15.78Q68.62 14.20 68.27 13.15Q67.92 12.10 67.18 11.60Q66.45 11.09 65.29 11.09L65.29 11.09Q64.03 11.09 63.16 11.72Q62.28 12.35 61.83 13.36Q61.37 14.38 61.37 15.57L61.37 15.57L61.37 26ZM96.93 26.35L96.93 26.35Q93.99 26.35 91.94 25.16Q89.89 23.97 88.81 21.80Q87.72 19.63 87.72 16.76L87.72 16.76Q87.72 13.71 88.83 11.51Q89.93 9.30 91.94 8.10Q93.95 6.89 96.72 6.89L96.72 6.89Q99.94 6.89 101.99 8.29Q104.03 9.69 104.95 12.14Q105.86 14.59 105.54 17.74L105.54 17.74L92.77 17.74Q92.77 19.28 93.27 20.35Q93.78 21.41 94.72 21.94Q95.67 22.46 96.93 22.46L96.93 22.46Q98.40 22.46 99.31 21.87Q100.22 21.27 100.53 20.29L100.53 20.29L105.40 20.29Q105.12 22.15 103.97 23.50Q102.81 24.84 101.01 25.60Q99.20 26.35 96.93 26.35ZM92.77 15.04L92.77 15.04L92.31 14.55L100.99 14.55L100.50 15.04Q100.57 13.57 100.10 12.65Q99.63 11.72 98.77 11.23Q97.91 10.74 96.72 10.74L96.72 10.74Q95.53 10.74 94.64 11.25Q93.75 11.75 93.27 12.72Q92.80 13.68 92.77 15.04ZM122.13 26L114.81 26L105.89 0.48L111.98 0.48L116.56 15.99L118.31 21.66L118.59 21.66L120.34 15.99L124.97 0.48L131.02 0.48L122.13 26ZM139.11 26.32L139.11 26.32Q137.39 26.32 135.99 25.67Q134.59 25.02 133.58 23.78Q132.56 22.54 132.02 20.71Q131.47 18.89 131.47 16.62L131.47 16.62Q131.47 13.54 132.44 11.35Q133.40 9.16 135.12 8.03Q136.83 6.89 139.11 6.89L139.11 6.89Q140.54 6.89 141.69 7.33Q142.85 7.76 143.69 8.55Q144.53 9.34 144.91 10.39L144.91 10.39L145.19 10.39L145.41 7.24L150.27 7.24L150.27 26L145.41 26L145.19 22.81L144.91 22.81Q144.36 24.39 142.80 25.35Q141.24 26.32 139.11 26.32ZM140.96 22.15L140.96 22.15Q142.36 22.15 143.29 21.55Q144.22 20.96 144.67 19.91Q145.13 18.86 145.13 17.53L145.13 17.53L145.13 15.67Q145.13 14.31 144.65 13.28Q144.18 12.24 143.25 11.65Q142.33 11.05 141.10 11.05L141.10 11.05Q139.63 11.05 138.67 11.72Q137.71 12.38 137.22 13.63Q136.72 14.87 136.72 16.62L136.72 16.62Q136.72 18.30 137.18 19.56Q137.63 20.82 138.58 21.48Q139.53 22.15 140.96 22.15ZM159.65 26.32L159.65 26.32Q157.51 26.32 156.01 25.48Q154.50 24.63 153.73 22.97Q152.96 21.31 152.96 18.93L152.96 18.93L152.96 7.24L158.11 7.24L158.11 17.56Q158.11 19.04 158.48 20.05Q158.84 21.06 159.63 21.61Q160.42 22.15 161.68 22.15L161.68 22.15Q162.97 22.15 163.88 21.52Q164.79 20.89 165.28 19.86Q165.77 18.82 165.77 17.60L165.77 17.60L165.77 7.24L170.92 7.24L170.92 26L165.98 26L165.77 22.57L165.56 22.57Q164.86 24.39 163.27 25.35Q161.68 26.32 159.65 26.32ZM179.07 26L173.93 26L173.93 0.48L179.07 0.48L179.07 26ZM192.79 26L188.59 26Q186.18 26 185.03 24.86Q183.87 23.73 183.87 21.24L183.87 21.24L183.87 11.37L180.51 11.37L180.51 7.24L183.87 7.24L183.87 2.13L189.01 1.64L189.01 7.24L192.79 7.24L192.79 11.37L189.01 11.37L189.01 20.29Q189.01 21.17 189.44 21.48Q189.85 21.80 190.63 21.80L190.63 21.80L192.79 21.80L192.79 26Z" fill="#ffffff"></path></g>
        
      </svg>