
      <svg data-logo="logo" xmlns="http://www.w3.org/2000/svg" viewBox="0 0 71 41">
        <g id="logogram" transform="translate(0, 0) rotate(0) "><path d="M37.7824 2.31575C38.7075 1.35327 39.964 0.812561 41.2724 0.812561C47.159 0.812561 52.7065 0.812564 58.1696 0.812576C69.1575 0.812599 74.6597 14.6328 66.8901 22.7155L49.9661 40.3216C49.1892 41.1299 47.8607 40.5574 47.8607 39.4143V23.9075L49.8165 21.8728C51.3704 20.2563 50.2699 17.4922 48.0723 17.4922H23.1939L37.7824 2.31575Z" fill="white"/><path d="M33.2722 39.0841C32.347 40.0466 31.0905 40.5873 29.7821 40.5873C23.8955 40.5873 18.348 40.5873 12.8849 40.5873C1.89705 40.5872 -3.60514 26.7671 4.16443 18.6843L21.0884 1.07826C21.8654 0.269982 23.1938 0.842438 23.1938 1.98551L23.1939 17.4922L21.238 19.527C19.6841 21.1436 20.7846 23.9076 22.9822 23.9076L47.8607 23.9075L33.2722 39.0841Z" fill="white"/></g>
        <g id="logotype" transform="translate(71, 20.5)"></g>
        
      </svg>
    